<?xml version="1.0" encoding="iso-8859-1"?>
<!-- Generator: Adobe Illustrator 17.1.0, SVG Export Plug-In . SVG Version: 6.00 Build 0)  -->
<!DOCTYPE svg PUBLIC "-//W3C//DTD SVG 1.1//EN" "http://www.w3.org/Graphics/SVG/1.1/DTD/svg11.dtd">
<svg version="1.1" id="Capa_1" xmlns="http://www.w3.org/2000/svg" xmlns:xlink="http://www.w3.org/1999/xlink" x="0px" y="0px"
	 viewBox="0 0 197.732 197.732" style="enable-background:new 0 0 197.732 197.732;" xml:space="preserve">
<path d="M72.445,181.513c-1.948,0-3.923-0.479-5.783-1.457c-4.858-2.555-7.352-7.694-6.352-13.092l2.95,0.546l-2.95-0.546
	l2.936-15.86l-22.694,22.694c-3.882,3.883-9.528,4.74-14.389,2.183c-4.858-2.556-7.352-7.694-6.352-13.092L38.342,62.791
	L24.337,48.784c-1.171-1.171-1.171-3.07,0-4.242l2.211-2.212c2.226-2.226,3.451-5.184,3.451-8.331c0-3.146-1.225-6.104-3.45-8.33
	c-4.593-4.593-12.067-4.594-16.662,0l-0.446,0.445c-4.592,4.593-4.592,12.067,0.001,16.661l0.667,0.667
	c1.172,1.171,1.172,3.071,0,4.242c-1.171,1.172-3.071,1.172-4.242,0L5.2,47.018c-6.933-6.933-6.933-18.214,0-25.146l0.446-0.445
	c3.357-3.357,7.822-5.207,12.572-5.207c4.75,0,9.215,1.85,12.573,5.208c3.359,3.358,5.208,7.823,5.208,12.572
	c0,4.75-1.849,9.215-5.208,12.573l-0.09,0.091l11.885,11.885l23.574-4.364l-1.324-1.324c-1.172-1.171-1.172-3.071,0-4.242
	l2.212-2.212c2.225-2.226,3.451-5.184,3.451-8.331c0-3.146-1.226-6.104-3.451-8.33c-4.594-4.594-12.068-4.594-16.662,0L49.94,30.19
	c-4.592,4.593-4.592,12.067,0.001,16.661l0.667,0.667c1.172,1.171,1.172,3.071,0,4.242c-1.171,1.172-3.071,1.172-4.242,0
	l-0.667-0.667c-6.933-6.933-6.933-18.214,0-25.146l0.446-0.445c3.357-3.357,7.822-5.207,12.572-5.207
	c4.749,0,9.214,1.85,12.573,5.208c3.359,3.358,5.208,7.823,5.208,12.572c0,4.75-1.85,9.215-5.208,12.573l-0.09,0.091l2.12,2.12
	l69.365-12.843c5.397-0.999,10.538,1.494,13.093,6.354c0.446,0.849,0.789,1.722,1.029,2.605l26.377-4.884
	c5.396-0.998,10.537,1.494,13.093,6.354c2.555,4.859,1.698,10.507-2.184,14.388L81.051,177.873
	C78.655,180.27,75.586,181.513,72.445,181.513z M70.734,143.615l-4.525,24.44c-0.62,3.348,1.271,5.651,3.246,6.69
	c1.976,1.039,4.944,1.292,7.353-1.115L189.85,60.59c2.407-2.407,2.155-5.376,1.115-7.353c-1.04-1.976-3.346-3.869-6.69-3.246
	l-27.405,5.073c-0.529,2.085-1.631,4.048-3.276,5.692L70.734,143.615z M44.154,64.359l-18.443,99.621
	c-0.62,3.348,1.271,5.651,3.246,6.69s4.945,1.292,7.353-1.115l28.864-28.865l13.667-73.824l-7.533-7.534L44.154,64.359z
	 M84.653,68.435l-11.991,64.768l76.688-76.688c0.023-0.023,0.046-0.047,0.069-0.071L84.653,68.435z M78.468,58.007l4.616,4.616
	l67.777-12.548c-0.112-0.322-0.245-0.628-0.396-0.913c-1.039-1.976-3.341-3.868-6.69-3.246L78.468,58.007z"/>
<g>
</g>
<g>
</g>
<g>
</g>
<g>
</g>
<g>
</g>
<g>
</g>
<g>
</g>
<g>
</g>
<g>
</g>
<g>
</g>
<g>
</g>
<g>
</g>
<g>
</g>
<g>
</g>
<g>
</g>
</svg>
