<?xml version="1.0" encoding="iso-8859-1"?>
<!-- Generator: Adobe Illustrator 18.0.0, SVG Export Plug-In . SVG Version: 6.00 Build 0)  -->
<!DOCTYPE svg PUBLIC "-//W3C//DTD SVG 1.1//EN" "http://www.w3.org/Graphics/SVG/1.1/DTD/svg11.dtd">
<svg version="1.1" id="Capa_1" xmlns="http://www.w3.org/2000/svg" xmlns:xlink="http://www.w3.org/1999/xlink" x="0px" y="0px"
	 viewBox="0 0 297 297" style="enable-background:new 0 0 297 297;" xml:space="preserve">
<g>
	<path d="M175.394,26.894c-46.37,0-88.657,26.461-109.074,67.811C28.188,104.819,0,139.637,0,180.92
		c0,49.178,39.995,89.187,89.154,89.187c14.211,0,27.653-3.35,39.589-9.292c14.788,6.161,30.455,9.292,46.65,9.292
		C242.448,270.106,297,215.555,297,148.5C297,81.446,242.448,26.894,175.394,26.894z M19.38,180.92
		c0-38.491,31.3-69.807,69.774-69.807c38.474,0,69.774,31.315,69.774,69.807s-31.301,69.807-69.774,69.807
		C50.68,250.727,19.38,219.411,19.38,180.92z M132.776,103.164c11.453-10.743,26.698-16.921,42.617-16.921
		c34.329,0,62.257,27.929,62.257,62.257s-27.928,62.257-62.257,62.257c-0.732,0-1.467-0.037-2.201-0.063
		c3.309-9.316,5.116-19.337,5.116-29.773C178.309,147.585,159.928,118.468,132.776,103.164z M175.394,250.727
		c-9.121,0-18.038-1.183-26.667-3.514c5.838-5.255,10.981-11.269,15.271-17.885c3.789,0.535,7.602,0.808,11.396,0.808
		c45.015,0,81.637-36.621,81.637-81.636s-36.622-81.636-81.637-81.636c-23.736,0-46.332,10.458-61.764,28.287
		c-7.407-2.117-15.206-3.294-23.259-3.402c18.765-28.069,50.547-45.476,85.023-45.476c56.368,0,102.226,45.858,102.226,102.227
		S231.762,250.727,175.394,250.727z"/>
	<path d="M89.154,122.662c-32.086,0-58.189,26.134-58.189,58.258s26.104,58.258,58.189,58.258s58.189-26.134,58.189-58.258
		S121.24,122.662,89.154,122.662z M89.154,219.798c-21.4,0-38.81-17.44-38.81-38.878s17.41-38.878,38.81-38.878
		c21.399,0,38.81,17.44,38.81,38.878S110.554,219.798,89.154,219.798z"/>
</g>
<g>
</g>
<g>
</g>
<g>
</g>
<g>
</g>
<g>
</g>
<g>
</g>
<g>
</g>
<g>
</g>
<g>
</g>
<g>
</g>
<g>
</g>
<g>
</g>
<g>
</g>
<g>
</g>
<g>
</g>
</svg>
