<?xml version="1.0" encoding="iso-8859-1"?>
<!-- Generator: Adobe Illustrator 19.0.0, SVG Export Plug-In . SVG Version: 6.00 Build 0)  -->
<svg version="1.1" id="Layer_1" xmlns="http://www.w3.org/2000/svg" xmlns:xlink="http://www.w3.org/1999/xlink" x="0px" y="0px"
	 viewBox="0 0 503.608 503.608" style="enable-background:new 0 0 503.608 503.608;" xml:space="preserve">
<g>
	<g>
		<path d="M386.099,486.82H276.984V335.738h16.787c3.685,0,6.939-2.403,8.022-5.925l20.62-67.014
			c0.025-0.076,0.048-0.152,0.07-0.228l12.884-41.872c0.246-0.8,0.371-1.632,0.371-2.468V109.115c0-4.636-3.758-8.393-8.393-8.393
			V16.787c0-4.636-3.758-8.393-8.393-8.393h-25.18c0-4.636-3.758-8.393-8.393-8.393H218.23c-4.636,0-8.393,3.758-8.393,8.393h-25.18
			c-4.636,0-8.393,3.758-8.393,8.393v83.934c-4.636,0-8.393,3.758-8.393,8.393V218.23c0,0.837,0.125,1.669,0.371,2.468l2.572,8.36
			c0.011,0.038,0.023,0.076,0.035,0.113l10.282,33.416c0.02,0.066,0.039,0.132,0.061,0.197l10.302,33.482c0,0,0,0,0,0l10.322,33.546
			c1.084,3.522,4.338,5.925,8.022,5.925h16.787V486.82H117.509c-4.636,0-8.393,3.758-8.393,8.393s3.758,8.393,8.393,8.393h117.474
			c0.011,0,0.022,0.002,0.034,0.002h33.574c0.011,0,0.022-0.002,0.034-0.002h117.474c4.636,0,8.393-3.758,8.393-8.393
			S390.735,486.82,386.099,486.82z M310.558,25.18v75.541h-16.787h-16.787V83.934h8.393c4.636,0,8.393-3.758,8.393-8.393V25.18
			H310.558z M235.017,117.508h33.574h15.73c-3.725,14.483-16.868,25.18-32.517,25.18s-28.791-10.697-32.517-25.18H235.017z
			 M276.984,16.787v50.361h-8.393c-4.636,0-8.393,3.758-8.393,8.393v25.18h-16.787v-25.18c0-4.636-3.758-8.393-8.393-8.393h-8.393
			V16.787H276.984z M193.05,25.18h16.787v50.361c0,4.636,3.758,8.393,8.393,8.393h8.393v16.787h-16.787H193.05V25.18z
			 M210.871,302.164h15.749c4.636,0,8.393-3.758,8.393-8.393s-3.758-8.393-8.393-8.393h-20.914l-5.165-16.787h26.084
			c4.636,0,8.393-3.758,8.393-8.393c0-4.636-3.758-8.393-8.393-8.393h-31.249l-5.165-16.787h36.41c4.636,0,8.393-3.758,8.393-8.393
			s-3.758-8.393-8.393-8.393h-41.576l-0.388-1.262v-15.525h41.967c4.636,0,8.393-3.758,8.393-8.393c0-4.636-3.758-8.393-8.393-8.393
			h-41.967v-67.148h17.496c3.997,23.819,24.695,41.967,49.651,41.967s45.655-18.148,49.651-41.967h17.496v67.148h-41.967
			c-4.636,0-8.393,3.758-8.393,8.393c0,4.636,3.758,8.393,8.393,8.393h41.967v15.525l-0.388,1.262h-41.579
			c-4.636,0-8.393,3.758-8.393,8.393s3.758,8.393,8.393,8.393h36.414l-5.165,16.787h-31.249c-4.636,0-8.393,3.758-8.393,8.393
			c0,4.636,3.758,8.393,8.393,8.393h26.083l-5.165,16.787h-20.918c-4.636,0-8.393,3.758-8.393,8.393s3.758,8.393,8.393,8.393h15.753
			l-5.165,16.787h-71.536L210.871,302.164z M243.411,335.739h16.787v151.08h-16.787V335.739z"/>
	</g>
</g>
<g>
</g>
<g>
</g>
<g>
</g>
<g>
</g>
<g>
</g>
<g>
</g>
<g>
</g>
<g>
</g>
<g>
</g>
<g>
</g>
<g>
</g>
<g>
</g>
<g>
</g>
<g>
</g>
<g>
</g>
</svg>
