<?xml version="1.0" encoding="iso-8859-1"?>
<!-- Generator: Adobe Illustrator 19.0.0, SVG Export Plug-In . SVG Version: 6.00 Build 0)  -->
<svg version="1.1" id="Layer_1" xmlns="http://www.w3.org/2000/svg" xmlns:xlink="http://www.w3.org/1999/xlink" x="0px" y="0px"
	 viewBox="0 0 332.016 332.016" style="enable-background:new 0 0 332.016 332.016;" xml:space="preserve">
<g>
	<g>
		<g>
			<path d="M166.01,224.154c-14.418,0-27.975,5.615-38.174,15.811c-1.406,1.407-2.197,3.314-2.197,5.304
				c0,1.99,0.79,3.897,2.196,5.304l32.871,32.871c1.465,1.464,3.385,2.197,5.304,2.197s3.839-0.732,5.304-2.197l32.871-32.871
				c1.406-1.407,2.196-3.314,2.196-5.304s-0.79-3.897-2.197-5.303C193.985,229.769,180.429,224.154,166.01,224.154z M166.01,267.534
				l-21.758-21.757c6.38-4.308,13.892-6.623,21.758-6.623c7.867,0,15.379,2.315,21.758,6.622L166.01,267.534z"/>
			<path d="M166.01,164.476c-30.322,0-58.855,11.834-80.344,33.322c-1.407,1.406-2.197,3.314-2.197,5.303
				c0,1.989,0.79,3.897,2.197,5.303l22.211,22.21c1.464,1.464,3.384,2.197,5.303,2.197s3.839-0.732,5.304-2.197
				c12.722-12.722,29.601-19.729,47.526-19.729c17.925,0,34.804,7.006,47.525,19.727c2.928,2.929,7.678,2.929,10.605,0l22.211-22.21
				c1.407-1.406,2.197-3.314,2.197-5.303c0-1.989-0.79-3.897-2.197-5.304C224.863,176.309,196.331,164.476,166.01,164.476z
				 M218.602,214.938c-14.761-12.336-33.172-19.053-52.592-19.053c-19.421,0-37.832,6.716-52.594,19.055l-11.644-11.643
				c17.893-15.413,40.433-23.822,64.237-23.822c23.804,0,46.343,8.408,64.235,23.82L218.602,214.938z"/>
			<path d="M166.01,105.426c-46.07,0-89.425,17.983-122.079,50.636c-1.406,1.406-2.196,3.314-2.196,5.303s0.79,3.897,2.197,5.303
				l22.21,22.21c1.465,1.465,3.385,2.197,5.304,2.197s3.839-0.732,5.304-2.197c23.887-23.888,55.587-37.043,89.261-37.043
				s65.374,13.155,89.262,37.041c2.928,2.929,7.677,2.929,10.606,0l22.21-22.21c1.406-1.406,2.196-3.314,2.196-5.303
				s-0.79-3.897-2.197-5.303C255.435,123.408,212.08,105.426,166.01,105.426z M260.438,173.103
				c-26.003-23.442-59.252-36.268-94.428-36.268c-35.176,0-68.425,12.827-94.428,36.271l-11.618-11.618
				c29.115-26.536,66.485-41.062,106.046-41.062c39.561,0,76.931,14.525,106.045,41.06L260.438,173.103z"/>
			<path d="M329.819,114.324C286.001,70.506,227.825,46.375,166.01,46.375c-61.818,0-119.995,24.132-163.813,67.952
				c-2.929,2.929-2.929,7.678,0,10.606l22.21,22.21c1.407,1.407,3.314,2.197,5.304,2.197c1.99,0,3.896-0.79,5.304-2.197
				c35.052-35.054,81.573-54.359,130.995-54.359c49.421,0,95.941,19.304,130.993,54.355c2.929,2.928,7.677,2.93,10.607,0
				l22.21-22.21c1.406-1.406,2.196-3.314,2.196-5.303C332.016,117.637,331.227,115.73,329.819,114.324z M302.21,131.327
				c-37.198-34.584-85.274-53.542-136.2-53.542c-50.928,0-99.004,18.959-136.202,53.545l-11.612-11.61
				C58.501,82.04,110.7,61.375,166.01,61.375c55.308,0,107.505,20.663,147.811,58.341L302.21,131.327z"/>
		</g>
	</g>
</g>
<g>
</g>
<g>
</g>
<g>
</g>
<g>
</g>
<g>
</g>
<g>
</g>
<g>
</g>
<g>
</g>
<g>
</g>
<g>
</g>
<g>
</g>
<g>
</g>
<g>
</g>
<g>
</g>
<g>
</g>
</svg>
